<mxfile host="app.diagrams.net" modified="2021-01-05T02:45:38.140Z" agent="5.0 (Macintosh; Intel Mac OS X 10_15_6) AppleWebKit/537.36 (KHTML, like Gecko) Chrome/87.0.4280.88 Safari/537.36" etag="-wrpqlTY2H1vg82pyZ21" version="14.1.4" type="github">
  <diagram id="t6K7e2A5DxA8Q9QG1Hty" name="Page-1">
    <mxGraphModel dx="1298" dy="834" grid="1" gridSize="10" guides="1" tooltips="1" connect="1" arrows="1" fold="1" page="1" pageScale="1" pageWidth="827" pageHeight="1169" math="0" shadow="0">
      <root>
        <mxCell id="0" />
        <mxCell id="1" parent="0" />
        <mxCell id="hFjzLXXYWiRsOhctmAie-1" value="server" style="rounded=0;whiteSpace=wrap;html=1;" parent="1" vertex="1">
          <mxGeometry x="300" y="330" width="120" height="50" as="geometry" />
        </mxCell>
        <mxCell id="hFjzLXXYWiRsOhctmAie-2" value="client" style="rounded=0;whiteSpace=wrap;html=1;" parent="1" vertex="1">
          <mxGeometry x="300" y="610" width="120" height="60" as="geometry" />
        </mxCell>
        <mxCell id="hFjzLXXYWiRsOhctmAie-3" value="webpack compiler" style="rounded=0;whiteSpace=wrap;html=1;" parent="1" vertex="1">
          <mxGeometry x="314" y="70" width="116" height="50" as="geometry" />
        </mxCell>
        <mxCell id="hFjzLXXYWiRsOhctmAie-8" value="" style="endArrow=classic;html=1;" parent="1" source="hFjzLXXYWiRsOhctmAie-3" edge="1">
          <mxGeometry width="50" height="50" relative="1" as="geometry">
            <mxPoint x="470" y="440" as="sourcePoint" />
            <mxPoint x="260" y="210" as="targetPoint" />
            <Array as="points">
              <mxPoint x="280" y="200" />
            </Array>
          </mxGeometry>
        </mxCell>
        <mxCell id="hFjzLXXYWiRsOhctmAie-14" style="edgeStyle=orthogonalEdgeStyle;rounded=0;orthogonalLoop=1;jettySize=auto;html=1;exitX=0;exitY=0;exitDx=85;exitDy=40;exitPerimeter=0;" parent="1" source="hFjzLXXYWiRsOhctmAie-12" target="hFjzLXXYWiRsOhctmAie-1" edge="1">
          <mxGeometry relative="1" as="geometry">
            <Array as="points">
              <mxPoint x="490" y="250" />
              <mxPoint x="490" y="290" />
              <mxPoint x="360" y="290" />
            </Array>
          </mxGeometry>
        </mxCell>
        <mxCell id="hFjzLXXYWiRsOhctmAie-9" value="正在编译" style="html=1;shape=mxgraph.infographic.ribbonSimple;notch1=20;notch2=0;align=center;verticalAlign=middle;fontSize=14;fontStyle=0;fillColor=#FFFFFF;flipH=0;spacingRight=0;spacingLeft=14;" parent="1" vertex="1">
          <mxGeometry x="210" y="210" width="170" height="40" as="geometry" />
        </mxCell>
        <mxCell id="hFjzLXXYWiRsOhctmAie-12" value="编译结束" style="html=1;shape=mxgraph.infographic.ribbonSimple;notch1=20;notch2=0;align=center;verticalAlign=middle;fontSize=14;fontStyle=0;fillColor=#FFFFFF;flipH=0;spacingRight=0;spacingLeft=14;" parent="1" vertex="1">
          <mxGeometry x="408" y="210" width="170" height="40" as="geometry" />
        </mxCell>
        <mxCell id="hFjzLXXYWiRsOhctmAie-13" value="" style="endArrow=classic;html=1;entryX=0.318;entryY=-0.025;entryDx=0;entryDy=0;entryPerimeter=0;" parent="1" source="hFjzLXXYWiRsOhctmAie-3" target="hFjzLXXYWiRsOhctmAie-12" edge="1">
          <mxGeometry width="50" height="50" relative="1" as="geometry">
            <mxPoint x="470" y="440" as="sourcePoint" />
            <mxPoint x="520" y="390" as="targetPoint" />
          </mxGeometry>
        </mxCell>
        <mxCell id="hFjzLXXYWiRsOhctmAie-33" style="edgeStyle=orthogonalEdgeStyle;rounded=0;orthogonalLoop=1;jettySize=auto;html=1;entryX=0.5;entryY=0;entryDx=0;entryDy=0;" parent="1" source="hFjzLXXYWiRsOhctmAie-15" target="hFjzLXXYWiRsOhctmAie-2" edge="1">
          <mxGeometry relative="1" as="geometry" />
        </mxCell>
        <mxCell id="hFjzLXXYWiRsOhctmAie-15" value="" style="aspect=fixed;html=1;points=[];align=center;image;fontSize=12;image=img/lib/azure2/analytics/Event_Hubs.svg;" parent="1" vertex="1">
          <mxGeometry x="326.5" y="480" width="67" height="60" as="geometry" />
        </mxCell>
        <mxCell id="hFjzLXXYWiRsOhctmAie-17" style="edgeStyle=orthogonalEdgeStyle;rounded=0;orthogonalLoop=1;jettySize=auto;html=1;exitX=0;exitY=0;exitDx=85;exitDy=40;exitPerimeter=0;" parent="1" edge="1">
          <mxGeometry relative="1" as="geometry">
            <mxPoint x="362.5" y="380" as="sourcePoint" />
            <mxPoint x="361" y="480" as="targetPoint" />
            <Array as="points" />
          </mxGeometry>
        </mxCell>
        <mxCell id="hFjzLXXYWiRsOhctmAie-18" value="broadcast event" style="edgeLabel;html=1;align=center;verticalAlign=middle;resizable=0;points=[];" parent="hFjzLXXYWiRsOhctmAie-17" vertex="1" connectable="0">
          <mxGeometry x="-0.3846" relative="1" as="geometry">
            <mxPoint as="offset" />
          </mxGeometry>
        </mxCell>
        <mxCell id="hFjzLXXYWiRsOhctmAie-21" value="Done" style="text;html=1;strokeColor=none;fillColor=none;align=center;verticalAlign=middle;whiteSpace=wrap;rounded=0;" parent="1" vertex="1">
          <mxGeometry x="286.5" y="500" width="40" height="20" as="geometry" />
        </mxCell>
        <mxCell id="hFjzLXXYWiRsOhctmAie-28" style="edgeStyle=orthogonalEdgeStyle;rounded=0;orthogonalLoop=1;jettySize=auto;html=1;exitX=0.5;exitY=1;exitDx=0;exitDy=0;" parent="1" source="hFjzLXXYWiRsOhctmAie-24" target="hFjzLXXYWiRsOhctmAie-27" edge="1">
          <mxGeometry relative="1" as="geometry">
            <mxPoint x="360" y="970" as="sourcePoint" />
          </mxGeometry>
        </mxCell>
        <mxCell id="hFjzLXXYWiRsOhctmAie-24" value="check" style="rhombus;whiteSpace=wrap;html=1;" parent="1" vertex="1">
          <mxGeometry x="320" y="750" width="80" height="80" as="geometry" />
        </mxCell>
        <mxCell id="hFjzLXXYWiRsOhctmAie-25" value="" style="endArrow=classic;html=1;exitX=0.5;exitY=1;exitDx=0;exitDy=0;entryX=0.5;entryY=0;entryDx=0;entryDy=0;" parent="1" source="hFjzLXXYWiRsOhctmAie-2" target="hFjzLXXYWiRsOhctmAie-24" edge="1">
          <mxGeometry width="50" height="50" relative="1" as="geometry">
            <mxPoint x="118" y="1080" as="sourcePoint" />
            <mxPoint x="168" y="1030" as="targetPoint" />
          </mxGeometry>
        </mxCell>
        <mxCell id="hFjzLXXYWiRsOhctmAie-26" value="ok" style="edgeLabel;html=1;align=center;verticalAlign=middle;resizable=0;points=[];" parent="hFjzLXXYWiRsOhctmAie-25" vertex="1" connectable="0">
          <mxGeometry x="-0.125" relative="1" as="geometry">
            <mxPoint as="offset" />
          </mxGeometry>
        </mxCell>
        <mxCell id="hFjzLXXYWiRsOhctmAie-29" style="edgeStyle=orthogonalEdgeStyle;rounded=0;orthogonalLoop=1;jettySize=auto;html=1;entryX=0.5;entryY=0;entryDx=0;entryDy=0;" parent="1" source="hFjzLXXYWiRsOhctmAie-27" target="hFjzLXXYWiRsOhctmAie-30" edge="1">
          <mxGeometry relative="1" as="geometry">
            <mxPoint x="456" y="1090" as="targetPoint" />
          </mxGeometry>
        </mxCell>
        <mxCell id="hFjzLXXYWiRsOhctmAie-31" value="update 失败" style="edgeLabel;html=1;align=center;verticalAlign=middle;resizable=0;points=[];" parent="hFjzLXXYWiRsOhctmAie-29" vertex="1" connectable="0">
          <mxGeometry x="0.0533" relative="1" as="geometry">
            <mxPoint x="4" y="-12" as="offset" />
          </mxGeometry>
        </mxCell>
        <mxCell id="hFjzLXXYWiRsOhctmAie-27" value="hot replace module&amp;nbsp;" style="rhombus;whiteSpace=wrap;html=1;" parent="1" vertex="1">
          <mxGeometry x="320" y="910" width="80" height="80" as="geometry" />
        </mxCell>
        <mxCell id="hFjzLXXYWiRsOhctmAie-30" value="page reload" style="rounded=1;whiteSpace=wrap;html=1;" parent="1" vertex="1">
          <mxGeometry x="310" y="1050" width="100" height="40" as="geometry" />
        </mxCell>
        <mxCell id="hFjzLXXYWiRsOhctmAie-32" value="获取hashId 与last hash 比较" style="text;html=1;strokeColor=none;fillColor=none;align=center;verticalAlign=middle;whiteSpace=wrap;rounded=0;" parent="1" vertex="1">
          <mxGeometry x="360" y="860" width="70" height="20" as="geometry" />
        </mxCell>
        <mxCell id="2I5sPkQ9JuArbatCWA_M-4" value="&lt;h1&gt;&lt;span style=&quot;font-size: 12px ; font-weight: 400 ; text-align: center&quot;&gt;通过add entry 将socket客户端，加入到index&lt;/span&gt;&lt;br&gt;&lt;/h1&gt;" style="text;html=1;strokeColor=none;fillColor=none;spacing=5;spacingTop=-20;whiteSpace=wrap;overflow=hidden;rounded=0;" vertex="1" parent="1">
          <mxGeometry x="500" y="605" width="190" height="70" as="geometry" />
        </mxCell>
        <mxCell id="2I5sPkQ9JuArbatCWA_M-5" value="" style="endArrow=none;dashed=1;html=1;dashPattern=1 3;strokeWidth=2;exitX=1;exitY=0.5;exitDx=0;exitDy=0;" edge="1" parent="1" source="hFjzLXXYWiRsOhctmAie-2" target="2I5sPkQ9JuArbatCWA_M-4">
          <mxGeometry width="50" height="50" relative="1" as="geometry">
            <mxPoint x="430" y="650" as="sourcePoint" />
            <mxPoint x="410" y="610" as="targetPoint" />
            <Array as="points">
              <mxPoint x="450" y="640" />
            </Array>
          </mxGeometry>
        </mxCell>
      </root>
    </mxGraphModel>
  </diagram>
</mxfile>
